<svg width="33" height="32" viewBox="0 0 33 32" fill="none" xmlns="http://www.w3.org/2000/svg">
<path d="M17.0233 4.16V4.17333C16.61 4.17333 16.1967 4.29333 15.8633 4.52C15.1967 4.98667 15.1167 5.76 15.7167 6.25333L19.53 9.33333L7.89 9.37333H7.87667C6.91667 9.37333 5.98333 10 5.79667 10.8C5.58333 11.6133 6.25 12.2933 7.26333 12.2933L13.17 12.28L2.59667 20.4C1.58333 21.16 1.27667 22.4267 1.90333 23.2267C2.54333 24.04 3.89 24.04 4.91667 23.2267L10.65 18.52C10.65 18.52 10.5567 19.16 10.57 19.5333C10.57 19.92 10.7033 20.6667 10.8767 21.24C11.2633 22.48 11.9167 23.6133 12.8233 24.6133C13.7567 25.64 14.9167 26.4667 16.25 27.0533C17.6233 27.68 19.1433 28 20.7033 28C22.25 28 23.7833 27.6667 25.17 27.04C26.5033 26.4533 27.65 25.6133 28.5833 24.5867C29.49 23.5867 30.1433 22.44 30.53 21.2133C30.7167 20.5867 30.8367 19.96 30.9167 19.3333C30.9167 18.7067 30.9167 18.08 30.8367 17.4533C30.6633 16.24 30.25 15.0933 29.5833 14.0533C28.9967 13.1067 28.25 12.2667 27.33 11.56L18.1433 4.50667C17.8161 4.27552 17.4239 4.15414 17.0233 4.16ZM20.7033 12.28C22.25 12.28 23.7033 12.7867 24.8633 13.72C25.45 14.2 25.9167 14.76 26.25 15.3867C26.61 16 26.8367 16.7333 26.9167 17.48C26.97 18.2267 26.8633 18.9733 26.61 19.6933C26.3433 20.4133 25.9167 21.08 25.3433 21.68C24.1567 22.88 22.5033 23.5733 20.7033 23.5733C18.9167 23.5733 17.25 22.8933 16.0633 21.6933C15.49 21.1067 15.0633 20.4267 14.7967 19.7067C14.5394 18.9989 14.4393 18.2437 14.5033 17.4933C14.57 16.7467 14.7967 16.04 15.1433 15.4C15.49 14.7733 15.97 14.2133 16.5567 13.7333C17.7033 12.7867 19.17 12.28 20.7033 12.28ZM20.8367 14.1467C19.7967 14.1467 18.8367 14.52 18.13 15.12C17.41 15.7333 16.9167 16.5867 16.8767 17.5733C16.8233 18.5733 17.2233 19.5067 17.93 20.2C18.65 20.9067 19.69 21.3333 20.8367 21.3333C21.9833 21.3333 23.01 20.9067 23.7433 20.2C24.45 19.5067 24.85 18.5733 24.7967 17.5733C24.7433 16.5867 24.25 15.7333 23.5433 15.12C22.8367 14.52 21.8767 14.1467 20.8367 14.1467Z" fill="white"/>
</svg>
