<svg width="22" height="32" viewBox="0 0 22 32" fill="none" xmlns="http://www.w3.org/2000/svg">
<path d="M6.22999 3H10.443V11.4261H6.23004C0.67406 11.2089 0.617947 3.22811 6.22999 3ZM6.22999 20.2127H10.443V11.7865H6.23004C0.617998 12.0146 0.674112 19.9955 6.23004 20.2127H6.22999ZM15.0165 3H10.8034V11.4261H15.0165C20.6472 11.1248 20.5771 3.172 15.0165 3ZM10.443 24.7862V20.5731H6.23004C2.79204 20.5731 0.617998 24.6039 3.00903 27.499C5.2887 30.3686 10.4431 28.9379 10.4431 24.7862H10.443ZM19.2382 15.9996C19.2382 12.7618 15.709 10.7272 12.9009 12.3461C10.0929 13.965 10.0928 18.0342 12.9009 19.6531C15.709 21.272 19.2382 19.2374 19.2382 15.9996Z" fill="#f38ba8"/>
</svg>
