<svg width="33" height="32" viewBox="0 0 33 32" fill="none" xmlns="http://www.w3.org/2000/svg">
<path d="M26.3683 24.596L17.0752 29.7518C16.4387 30.0827 15.8022 30.0827 15.1657 29.7518L6 24.596L22.6129 7.85588L23.0584 7.72858C23.4403 7.72858 23.6567 7.89407 23.6949 8.23778L26.3683 24.596ZM12.8106 8.11048L7.01841 17.7218L9.43714 2.50921C9.47534 2.16549 9.69175 2 10.0737 2C10.3283 2 10.4937 2.07638 10.5829 2.31825L13.3198 7.34667L12.8106 8.11048ZM18.5392 9.71448L6.38191 21.9227L15.6113 6.26461C15.7386 6.01 15.9295 5.89543 16.1841 5.89543C16.4387 5.89543 16.6042 6.01 16.6933 6.26461L18.5392 9.71448Z" fill="#f9e2af"/>
</svg>
