<svg width="33" height="32" viewBox="0 0 33 32" fill="none" xmlns="http://www.w3.org/2000/svg">
<path d="M16 3C17.7072 3 19.3977 3.33625 20.9749 3.98957C22.5521 4.64288 23.9852 5.60045 25.1924 6.80761C26.3995 8.01477 27.3571 9.44788 28.0104 11.0251C28.6637 12.6023 29 14.2928 29 16C29 19.4478 27.6304 22.7544 25.1924 25.1924C22.7544 27.6304 19.4478 29 16 29C14.2928 29 12.6023 28.6637 11.0251 28.0104C9.44788 27.3571 8.01477 26.3995 6.80761 25.1924C4.36964 22.7544 3 19.4478 3 16C3 12.5522 4.36964 9.24558 6.80761 6.80761C9.24558 4.36964 12.5522 3 16 3M16 5.6C11.151 5.6 7.082 8.915 5.925 13.4L18.6 26.075C23.085 24.918 26.4 20.849 26.4 16H19.575V17.95H24.06C23.7453 19.2487 23.1211 20.452 22.2405 21.4571C21.3599 22.4622 20.2491 23.2393 19.003 23.722L8.278 12.997C9.5 9.903 12.49 7.719 16 7.719C18.769 7.719 21.2 9.071 22.734 11.164L24.333 9.786C23.3686 8.48472 22.1122 7.42804 20.6648 6.70098C19.2175 5.97393 17.6197 5.59681 16 5.6M5.6 16C5.6 18.7583 6.69571 21.4035 8.64609 23.3539C10.5965 25.3043 13.2417 26.4 16 26.4C16.052 26.4 16.117 26.4 5.6 16Z" fill="#cba6f7"/>
</svg>
