<svg width="33" height="32" viewBox="0 0 33 32" fill="none" xmlns="http://www.w3.org/2000/svg">
<path d="M3.71667 14.12L11.4233 6.4L13.6767 8.66667C13.3567 9.8 13.8767 11.04 14.9167 11.64V19.0267C14.1167 19.48 13.5833 20.3467 13.5833 21.3333C13.5833 22.0406 13.8643 22.7189 14.3644 23.219C14.8645 23.719 15.5428 24 16.25 24C16.9572 24 17.6355 23.719 18.1356 23.219C18.6357 22.7189 18.9167 22.0406 18.9167 21.3333C18.9167 20.3467 18.3833 19.48 17.5833 19.0267V12.5467L20.3433 15.3333C20.25 15.5333 20.25 15.76 20.25 16C20.25 16.7072 20.531 17.3855 21.031 17.8856C21.5311 18.3857 22.2094 18.6667 22.9167 18.6667C23.6239 18.6667 24.3022 18.3857 24.8023 17.8856C25.3024 17.3855 25.5833 16.7072 25.5833 16C25.5833 15.2928 25.3024 14.6145 24.8023 14.1144C24.3022 13.6143 23.6239 13.3333 22.9167 13.3333C22.6767 13.3333 22.45 13.3333 22.25 13.4267L18.8233 10C18.9889 9.38245 18.9247 8.7258 18.6427 8.15199C18.3607 7.57818 17.8801 7.12621 17.29 6.88C16.7167 6.66667 16.1167 6.61333 15.5833 6.76L13.3167 4.50667L14.37 3.46667C15.41 2.41333 17.09 2.41333 18.13 3.46667L28.7833 14.12C29.8367 15.16 29.8367 16.84 28.7833 17.88L18.13 28.5333C17.09 29.5867 15.41 29.5867 14.37 28.5333L3.71667 17.88C2.66333 16.84 2.66333 15.16 3.71667 14.12Z" fill="#eba0ac"/>
</svg>
