<svg width="33" height="32" viewBox="0 0 33 32" fill="none" xmlns="http://www.w3.org/2000/svg">
<path d="M16.4606 2C15.7989 2 15.1643 2.26286 14.6964 2.73074C14.2285 3.19863 13.9657 3.83322 13.9657 4.49492C13.9657 5.15661 14.2285 5.7912 14.6964 6.25909C15.1643 6.72698 15.7989 6.98983 16.4606 6.98983C17.1223 6.98983 17.7569 6.72698 18.2248 6.25909C18.6926 5.7912 18.9555 5.15661 18.9555 4.49492C18.9555 3.83322 18.6926 3.19863 18.2248 2.73074C17.7569 2.26286 17.1223 2 16.4606 2V2ZM26.4239 7.75283C25.7622 7.75283 25.1276 8.01569 24.6597 8.48358C24.1919 8.95146 23.929 9.58606 23.929 10.2477C23.929 10.9094 24.1919 11.544 24.6597 12.0119C25.1276 12.4798 25.7622 12.7427 26.4239 12.7427C27.0856 12.7427 27.7202 12.4798 28.1881 12.0119C28.656 11.544 28.9188 10.9094 28.9188 10.2477C28.9188 9.58606 28.656 8.95146 28.1881 8.48358C27.7202 8.01569 27.0856 7.75283 26.4239 7.75283ZM26.4239 19.2585C25.7622 19.2585 25.1276 19.5214 24.6597 19.9892C24.1919 20.4571 23.929 21.0917 23.929 21.7534C23.929 22.4151 24.1919 23.0497 24.6597 23.5176C25.1276 23.9855 25.7622 24.2483 26.4239 24.2483C27.0856 24.2483 27.7202 23.9855 28.1881 23.5176C28.656 23.0497 28.9188 22.4151 28.9188 21.7534C28.9188 21.0917 28.656 20.4571 28.1881 19.9892C27.7202 19.5214 27.0856 19.2585 26.4239 19.2585V19.2585ZM16.4606 25.0113C15.799 25.0113 15.1646 25.2741 14.6968 25.7419C14.229 26.2097 13.9663 26.8441 13.9663 27.5057C13.9663 28.1672 14.229 28.8016 14.6968 29.2694C15.1646 29.7372 15.799 30 16.4606 30C17.1221 30 17.7566 29.7372 18.2243 29.2694C18.6921 28.8016 18.9549 28.1672 18.9549 27.5057C18.9549 26.8441 18.6921 26.2097 18.2243 25.7419C17.7566 25.2741 17.1221 25.0113 16.4606 25.0113ZM6.49492 19.2597C6.16736 19.2597 5.843 19.3242 5.54038 19.4495C5.23775 19.5749 4.96278 19.7586 4.73116 19.9902C4.49954 20.2219 4.31581 20.4968 4.19045 20.7995C4.0651 21.1021 4.00058 21.4264 4.00058 21.754C4.00058 22.0816 4.0651 22.4059 4.19045 22.7085C4.31581 23.0112 4.49954 23.2861 4.73116 23.5178C4.96278 23.7494 5.23775 23.9331 5.54038 24.0585C5.843 24.1838 6.16736 24.2483 6.49492 24.2483C7.15661 24.2483 7.7912 23.9855 8.25909 23.5176C8.72698 23.0497 8.98983 22.4151 8.98983 21.7534C8.98983 21.0917 8.72698 20.4571 8.25909 19.9892C7.7912 19.5214 7.15661 19.2585 6.49492 19.2585V19.2597ZM6.49492 7.75283C5.83322 7.75283 5.19863 8.01569 4.73074 8.48358C4.26286 8.95146 4 9.58606 4 10.2477C4 10.9094 4.26286 11.544 4.73074 12.0119C5.19863 12.4798 5.83322 12.7427 6.49492 12.7427C7.15661 12.7427 7.7912 12.4798 8.25909 12.0119C8.72698 11.544 8.98983 10.9094 8.98983 10.2477C8.98983 9.58606 8.72698 8.95146 8.25909 8.48358C7.7912 8.01569 7.15661 7.75283 6.49492 7.75283V7.75283ZM16.4606 3.81183L5.90342 9.9065V22.0958L16.4606 28.1905L27.0154 22.0958V9.9065L16.4606 3.81183ZM16.4606 5.67967L25.3972 21.1613H7.52158L16.4606 5.67967ZM14.8424 6.1125L7.08992 19.5432V10.5902L14.8424 6.1125ZM18.0787 6.1125L25.8324 10.5902V19.5432L18.0787 6.1125ZM8.70575 22.3467H24.2142L16.4606 26.822L8.70575 22.3467Z" fill="#f5c2e7"/>
</svg>
