<svg width="33" height="32" viewBox="0 0 33 32" fill="none" xmlns="http://www.w3.org/2000/svg">
<path d="M12.2072 10.8657C13.2 11.7034 14.802 12.5767 16.1924 13.1215C14.9964 12.2535 13.8061 11.2752 12.6181 9.99465C13.607 7.88586 14.7878 4.97318 16.0052 2C17.99 7.07136 21.6894 14.7034 26.6452 23.7585C25.2988 23.0193 24.079 22.5983 22.8195 22.2731C23.2369 22.5113 24.2236 23.0498 24.8566 23.4826C25.8567 24.1663 26.7823 24.9139 27.6526 25.6298C28.4295 27.0583 29.2159 28.5163 30.0107 29.9999C26.0577 27.7111 22.2162 25.857 19.069 25.2843C20.0994 19.5689 16.0666 16.1969 13.7754 19.8348C12.8932 21.2355 12.6546 23.5434 13.073 25.2583C9.09388 26.0245 5.20061 28.1693 2 30C5.728 23.2448 9.49714 16.3968 12.2072 10.8657Z" fill="#74c7ec"/>
</svg>
