<svg width="33" height="32" viewBox="0 0 33 32" fill="none" xmlns="http://www.w3.org/2000/svg">
<path d="M16.25 2.66667C14.499 2.66667 12.7652 3.01154 11.1476 3.68161C9.52988 4.35167 8.06002 5.33379 6.82191 6.57191C4.32142 9.07239 2.91667 12.4638 2.91667 16C2.91667 21.8933 6.74333 26.8933 12.0367 28.6667C12.7033 28.7733 12.9167 28.36 12.9167 28V25.7467C9.22333 26.5467 8.43667 23.96 8.43667 23.96C7.82333 22.4133 6.95667 22 6.95667 22C5.74333 21.1733 7.05 21.2 7.05 21.2C8.38333 21.2933 9.09 22.5733 9.09 22.5733C10.25 24.6 12.21 24 12.97 23.68C13.09 22.8133 13.4367 22.2267 13.81 21.8933C10.85 21.56 7.74333 20.4133 7.74333 15.3333C7.74333 13.8533 8.25 12.6667 9.11667 11.72C8.98333 11.3867 8.51667 10 9.25 8.2C9.25 8.2 10.37 7.84 12.9167 9.56C13.97 9.26667 15.1167 9.12 16.25 9.12C17.3833 9.12 18.53 9.26667 19.5833 9.56C22.13 7.84 23.25 8.2 23.25 8.2C23.9833 10 23.5167 11.3867 23.3833 11.72C24.25 12.6667 24.7567 13.8533 24.7567 15.3333C24.7567 20.4267 21.6367 21.5467 18.6633 21.88C19.1433 22.2933 19.5833 23.1067 19.5833 24.3467V28C19.5833 28.36 19.7967 28.7867 20.4767 28.6667C25.77 26.88 29.5833 21.8933 29.5833 16C29.5833 14.249 29.2385 12.5152 28.5684 10.8976C27.8983 9.27988 26.9162 7.81002 25.6781 6.57191C24.44 5.33379 22.9701 4.35167 21.3524 3.68161C19.7348 3.01154 18.001 2.66667 16.25 2.66667Z" fill="#cdd6f4"/>
</svg>
