<svg width="33" height="32" viewBox="0 0 33 32" fill="none" xmlns="http://www.w3.org/2000/svg">
<path d="M26.8125 22.3125C27.1458 22.4583 27.3958 22.6562 27.5625 22.9062C27.7292 23.1562 27.849 23.4583 27.9219 23.8125C27.9635 24.0208 28.0104 24.2135 28.0625 24.3906C28.1146 24.5677 28.1771 24.7344 28.25 24.8906C28.3229 25.0469 28.4062 25.1979 28.5 25.3438C28.5938 25.4896 28.7188 25.651 28.875 25.8281C29.0104 25.974 29.1302 26.1615 29.2344 26.3906C29.3385 26.6198 29.3906 26.8385 29.3906 27.0469C29.3906 27.2865 29.3281 27.4896 29.2031 27.6562C29.0781 27.8229 28.9219 27.9688 28.7344 28.0938C28.4948 28.2604 28.2448 28.4062 27.9844 28.5312C27.724 28.6562 27.4635 28.7865 27.2031 28.9219C26.776 29.1302 26.4062 29.349 26.0938 29.5781C25.7812 29.8073 25.4688 30.099 25.1562 30.4531C24.9896 30.6406 24.8021 30.8229 24.5938 31C24.3854 31.1771 24.1562 31.3438 23.9062 31.5C23.6562 31.6562 23.401 31.7708 23.1406 31.8438C22.8802 31.9167 22.6198 31.9635 22.3594 31.9844C21.7552 31.9844 21.2552 31.8802 20.8594 31.6719C20.4635 31.4635 20.1198 31.0833 19.8281 30.5312C19.7448 30.375 19.6615 30.276 19.5781 30.2344C19.4948 30.1927 19.3594 30.1562 19.1719 30.125C18.6406 30.0833 18.1146 30.0417 17.5938 30C17.0729 29.9583 16.5417 29.9375 16 29.9375C15.5625 29.9375 15.1146 29.974 14.6562 30.0469C14.1979 30.1198 13.7448 30.2083 13.2969 30.3125C13.2031 30.3333 13.1094 30.4115 13.0156 30.5469C12.9219 30.6823 12.7917 30.8333 12.625 31C12.4583 31.1667 12.2344 31.3125 11.9531 31.4375C11.6719 31.5625 11.3021 31.6302 10.8438 31.6406C10.5 31.6406 10.1302 31.6042 9.73438 31.5312C9.33854 31.4583 8.98438 31.3385 8.67188 31.1719C8.02604 30.849 7.39062 30.6302 6.76562 30.5156C6.14062 30.401 5.47917 30.2969 4.78125 30.2031C4.54167 30.1719 4.3125 30.1302 4.09375 30.0781C3.875 30.026 3.68229 29.9375 3.51562 29.8125C3.34896 29.6875 3.21875 29.5417 3.125 29.375C3.03125 29.2083 2.97917 28.974 2.96875 28.6719C2.96875 28.349 3.01042 28.0365 3.09375 27.7344C3.17708 27.4323 3.22396 27.1146 3.23438 26.7812C3.23438 26.5521 3.21875 26.3281 3.1875 26.1094C3.15625 25.8906 3.13542 25.6562 3.125 25.4062C3.125 24.875 3.25 24.4844 3.5 24.2344C3.75 23.9844 4.11458 23.7865 4.59375 23.6406C4.82292 23.5677 5.02083 23.4688 5.1875 23.3438C5.35417 23.2188 5.51042 23.0833 5.65625 22.9375C5.80208 22.7917 5.9375 22.6302 6.0625 22.4531C6.1875 22.276 6.32812 22.099 6.48438 21.9219C6.51562 21.8802 6.53125 21.8333 6.53125 21.7812C6.53125 21.6562 6.52604 21.5365 6.51562 21.4219C6.50521 21.3073 6.49479 21.1823 6.48438 21.0469C6.48438 20.3385 6.59375 19.625 6.8125 18.9062C7.03125 18.1875 7.31771 17.4844 7.67188 16.7969C8.02604 16.1094 8.42188 15.4479 8.85938 14.8125C9.29688 14.1771 9.72917 13.5885 10.1562 13.0469C10.7604 12.276 11.2135 11.474 11.5156 10.6406C11.8177 9.80729 11.974 8.90104 11.9844 7.92188C11.9844 7.50521 11.9635 7.09375 11.9219 6.6875C11.8802 6.28125 11.8594 5.86458 11.8594 5.4375C11.8594 4.60417 11.9531 3.85417 12.1406 3.1875C12.3281 2.52083 12.6198 1.94792 13.0156 1.46875C13.4115 0.989583 13.9271 0.630208 14.5625 0.390625C15.1979 0.151042 15.9583 0.0208333 16.8438 0C17.8958 0 18.7344 0.208333 19.3594 0.625C19.9844 1.04167 20.4635 1.58854 20.7969 2.26562C21.1302 2.94271 21.3438 3.69792 21.4375 4.53125C21.5312 5.36458 21.5833 6.20833 21.5938 7.0625V7.32812C21.5938 7.75521 21.599 8.13542 21.6094 8.46875C21.6198 8.80208 21.6615 9.13021 21.7344 9.45312C21.8073 9.77604 21.9167 10.099 22.0625 10.4219C22.2083 10.7448 22.4271 11.0938 22.7188 11.4688C23.2188 12.125 23.7292 12.7865 24.25 13.4531C24.7708 14.1198 25.2448 14.8073 25.6719 15.5156C26.099 16.224 26.4479 16.9635 26.7188 17.7344C26.9896 18.5052 27.1302 19.3385 27.1406 20.2344C27.1406 20.9531 27.0312 21.6458 26.8125 22.3125ZM13.7031 6.03125C13.849 6.03125 13.9688 6.06771 14.0625 6.14062C14.1562 6.21354 14.2292 6.3125 14.2812 6.4375C14.3333 6.5625 14.3698 6.6875 14.3906 6.8125C14.4115 6.9375 14.4219 7.06771 14.4219 7.20312C14.4219 7.30729 14.4062 7.39062 14.375 7.45312C14.3438 7.51562 14.2969 7.57292 14.2344 7.625C14.1719 7.67708 14.1094 7.72917 14.0469 7.78125C13.9844 7.83333 13.9219 7.89583 13.8594 7.96875C13.7865 8.08333 13.6875 8.17708 13.5625 8.25C13.4375 8.32292 13.3177 8.40104 13.2031 8.48438C13.0885 8.56771 12.9844 8.65625 12.8906 8.75C12.7969 8.84375 12.75 8.97396 12.75 9.14062C12.75 9.23438 12.7969 9.3125 12.8906 9.375C13.1406 9.54167 13.3177 9.74479 13.4219 9.98438C13.526 10.224 13.6406 10.4583 13.7656 10.6875C13.8906 10.9167 14.0521 11.1094 14.25 11.2656C14.4479 11.4219 14.7552 11.5 15.1719 11.5H15.2656C15.6823 11.4792 16.0781 11.3698 16.4531 11.1719C16.8281 10.974 17.2031 10.7656 17.5781 10.5469C17.6302 10.5156 17.6979 10.4844 17.7812 10.4531C17.8646 10.4219 17.9323 10.3854 17.9844 10.3438L19.125 9.45312C19.1458 9.38021 19.1615 9.3125 19.1719 9.25C19.1823 9.1875 19.1927 9.11458 19.2031 9.03125C19.2031 8.91667 19.1771 8.82292 19.125 8.75C19.0729 8.67708 19.0104 8.61458 18.9375 8.5625C18.8646 8.51042 18.776 8.47396 18.6719 8.45312C18.5677 8.43229 18.474 8.40625 18.3906 8.375C18.1406 8.32292 17.9062 8.22917 17.6875 8.09375C17.4688 7.95833 17.2396 7.85417 17 7.78125C16.9583 7.77083 16.9271 7.73958 16.9062 7.6875C16.8854 7.63542 16.8646 7.57292 16.8438 7.5C16.8229 7.42708 16.8177 7.35938 16.8281 7.29688C16.8385 7.23438 16.8333 7.18229 16.8125 7.14062C16.8125 7.01562 16.8229 6.88542 16.8438 6.75C16.8646 6.61458 16.9115 6.48438 16.9844 6.35938C17.0573 6.23438 17.1406 6.14062 17.2344 6.07812C17.3281 6.01562 17.4635 5.97917 17.6406 5.96875C17.9635 5.96875 18.1979 6.08854 18.3438 6.32812C18.4896 6.56771 18.5677 6.82812 18.5781 7.10938C18.5781 7.24479 18.5521 7.36458 18.5 7.46875C18.4479 7.57292 18.4219 7.6875 18.4219 7.8125C18.4219 7.89583 18.4479 7.95312 18.5 7.98438C18.5521 8.01562 18.6198 8.03646 18.7031 8.04688C18.9427 8.04688 19.099 7.98958 19.1719 7.875C19.2448 7.76042 19.2865 7.58854 19.2969 7.35938C19.2969 7.11979 19.276 6.85417 19.2344 6.5625C19.1927 6.27083 19.1094 6 18.9844 5.75C18.8594 5.5 18.6979 5.29167 18.5 5.125C18.3021 4.95833 18.0469 4.875 17.7344 4.875C17.1927 4.875 16.8021 5.01042 16.5625 5.28125C16.3229 5.55208 16.1979 5.95833 16.1875 6.5C16.1875 6.65625 16.1979 6.8125 16.2188 6.96875C16.2396 7.125 16.25 7.28125 16.25 7.4375C16.25 7.48958 16.2448 7.51562 16.2344 7.51562C16.224 7.51562 16.1927 7.50521 16.1406 7.48438C16.0885 7.46354 16.026 7.4375 15.9531 7.40625C15.8802 7.375 15.8021 7.34896 15.7188 7.32812C15.6354 7.30729 15.5521 7.29688 15.4688 7.29688C15.4479 7.29688 15.3958 7.30208 15.3125 7.3125C15.2292 7.32292 15.1458 7.32812 15.0625 7.32812C14.9167 7.32812 14.8438 7.30208 14.8438 7.25C14.8438 7.09375 14.8333 6.89583 14.8125 6.65625C14.7917 6.41667 14.7396 6.17708 14.6562 5.9375C14.5729 5.69792 14.4688 5.5 14.3438 5.34375C14.2188 5.1875 14.0312 5.10417 13.7812 5.09375C13.6042 5.09375 13.4531 5.15104 13.3281 5.26562C13.2031 5.38021 13.0938 5.51562 13 5.67188C12.9062 5.82812 12.849 6.00521 12.8281 6.20312C12.8073 6.40104 12.7865 6.56771 12.7656 6.70312C12.7656 6.76562 12.776 6.875 12.7969 7.03125C12.8177 7.1875 12.8542 7.34896 12.9062 7.51562C12.9583 7.68229 13.0156 7.82812 13.0781 7.95312C13.1406 8.07812 13.2135 8.14062 13.2969 8.14062C13.349 8.14062 13.4167 8.10417 13.5 8.03125C13.5833 7.95833 13.625 7.89062 13.625 7.82812C13.625 7.79688 13.6094 7.77604 13.5781 7.76562C13.5469 7.75521 13.5156 7.75 13.4844 7.75C13.4115 7.75 13.349 7.71354 13.2969 7.64062C13.2448 7.56771 13.2031 7.48438 13.1719 7.39062C13.1406 7.29688 13.1094 7.19792 13.0781 7.09375C13.0469 6.98958 13.0365 6.91146 13.0469 6.85938C13.0469 6.65104 13.0938 6.46354 13.1875 6.29688C13.2812 6.13021 13.4531 6.04167 13.7031 6.03125ZM10.2969 30.3594C10.5469 30.3594 10.7917 30.3385 11.0312 30.2969C11.2708 30.2552 11.4948 30.1719 11.7031 30.0469C11.9115 29.9219 12.0677 29.7604 12.1719 29.5625C12.276 29.3646 12.3385 29.1146 12.3594 28.8125C12.3594 28.625 12.3281 28.4427 12.2656 28.2656C12.2031 28.0885 12.1146 27.9219 12 27.7656C11.875 27.5677 11.7396 27.3802 11.5938 27.2031C11.4479 27.026 11.3125 26.8385 11.1875 26.6406C10.9896 26.349 10.7969 26.0625 10.6094 25.7812C10.4219 25.5 10.2344 25.2031 10.0469 24.8906C9.88021 24.6198 9.72396 24.349 9.57812 24.0781C9.43229 23.8073 9.25521 23.5417 9.04688 23.2812C8.92188 23.125 8.77604 22.9844 8.60938 22.8594C8.44271 22.7344 8.25 22.6719 8.03125 22.6719C7.80208 22.6719 7.60417 22.7448 7.4375 22.8906C7.27083 23.0365 7.09896 23.2135 6.92188 23.4219C6.74479 23.6302 6.54688 23.8333 6.32812 24.0312C6.10938 24.2292 5.82812 24.3854 5.48438 24.5C5.21354 24.5833 5.00521 24.6979 4.85938 24.8438C4.71354 24.9896 4.64062 25.2135 4.64062 25.5156C4.64062 25.724 4.65625 25.9323 4.6875 26.1406C4.71875 26.349 4.73958 26.5573 4.75 26.7656C4.75 27.0469 4.70833 27.3125 4.625 27.5625C4.54167 27.8125 4.5 28.0573 4.5 28.2969C4.5 28.5781 4.59896 28.776 4.79688 28.8906C4.99479 29.0052 5.21875 29.0833 5.46875 29.125C5.78125 29.1771 6.07812 29.2188 6.35938 29.25C6.64062 29.2812 6.91667 29.3281 7.1875 29.3906C7.45833 29.4531 7.72917 29.5208 8 29.5938C8.27083 29.6667 8.55729 29.7812 8.85938 29.9375C8.92188 29.9688 9.01562 30.0052 9.14062 30.0469C9.26562 30.0885 9.40625 30.1354 9.5625 30.1875C9.71875 30.2396 9.86458 30.2812 10 30.3125C10.1354 30.3438 10.2344 30.3594 10.2969 30.3594ZM16.0156 28.4844C16.3073 28.4844 16.6198 28.4531 16.9531 28.3906C17.2865 28.3281 17.6198 28.2396 17.9531 28.125C18.2865 28.0104 18.6042 27.875 18.9062 27.7188C19.2083 27.5625 19.4792 27.3906 19.7188 27.2031C19.7396 27.1823 19.7604 27.151 19.7812 27.1094C19.8021 27.0677 19.8177 27.026 19.8281 26.9844V26.9688C19.8906 26.7396 19.9427 26.4896 19.9844 26.2188C20.026 25.9479 20.0625 25.6719 20.0938 25.3906C20.125 25.1094 20.1615 24.8333 20.2031 24.5625C20.2448 24.2917 20.2812 24.026 20.3125 23.7656C20.3542 23.4844 20.4062 23.2135 20.4688 22.9531C20.5312 22.6927 20.6146 22.4479 20.7188 22.2188C20.8229 21.9896 20.9635 21.7865 21.1406 21.6094C21.3177 21.4323 21.5469 21.2656 21.8281 21.1094V21.0781L21.8125 21.0312C21.8125 20.9375 21.8438 20.8385 21.9062 20.7344C21.9688 20.6302 22.0469 20.5208 22.1406 20.4062C22.2344 20.2917 22.3333 20.2031 22.4375 20.1406C22.5417 20.0781 22.651 20.026 22.7656 19.9844C22.7031 19.7344 22.6354 19.4844 22.5625 19.2344C22.4896 18.9844 22.4271 18.7344 22.375 18.4844C22.3125 18.1094 22.25 17.7917 22.1875 17.5312C22.125 17.2708 22.0521 17.0312 21.9688 16.8125C21.8854 16.5938 21.7656 16.3802 21.6094 16.1719C21.4531 15.9635 21.2604 15.7135 21.0312 15.4219C20.9167 15.2865 20.8385 15.1823 20.7969 15.1094C20.7552 15.0365 20.724 14.9062 20.7031 14.7188C20.6927 14.6458 20.6615 14.5104 20.6094 14.3125C20.5573 14.1146 20.4896 13.8854 20.4062 13.625C20.3229 13.3646 20.2292 13.0938 20.125 12.8125C20.0208 12.5312 19.9062 12.276 19.7812 12.0469C19.6562 11.8177 19.5417 11.625 19.4375 11.4688C19.3333 11.3125 19.224 11.2344 19.1094 11.2344C18.8594 11.2344 18.5625 11.3333 18.2188 11.5312C17.875 11.7292 17.5104 11.9479 17.125 12.1875C16.7396 12.4271 16.3646 12.651 16 12.8594C15.6354 13.0677 15.3073 13.1667 15.0156 13.1562C14.7031 13.1562 14.4167 13.0573 14.1562 12.8594C13.8958 12.6615 13.6562 12.4323 13.4375 12.1719C13.2188 11.9115 13.0365 11.6875 12.8906 11.5C12.7448 11.3125 12.6354 11.2083 12.5625 11.1875C12.4792 11.1875 12.4323 11.25 12.4219 11.375C12.4115 11.5 12.4062 11.6406 12.4062 11.7969V12.0625C12.4062 12.125 12.3958 12.1667 12.375 12.1875C12.2604 12.4271 12.1354 12.6615 12 12.8906C11.8646 13.1198 11.7292 13.3542 11.5938 13.5938C11.4583 13.8333 11.3542 14.0781 11.2812 14.3281C11.2083 14.5781 11.1667 14.8385 11.1562 15.1094C11.1562 15.2656 11.1667 15.4219 11.1875 15.5781C11.2083 15.7344 11.2604 15.8854 11.3438 16.0312L11.3125 16.0938C11.2292 16.2083 11.1406 16.3125 11.0469 16.4062C10.9531 16.5 10.8646 16.6094 10.7812 16.7344C10.3958 17.3073 10.125 17.9271 9.96875 18.5938C9.8125 19.2604 9.72917 19.9375 9.71875 20.625C9.71875 20.8021 9.72917 20.9792 9.75 21.1562C9.77083 21.3333 9.78125 21.5104 9.78125 21.6875C9.78125 21.7396 9.77604 21.7969 9.76562 21.8594C9.75521 21.9219 9.75 21.9792 9.75 22.0312C9.92708 22.0417 10.1354 22.1146 10.375 22.25C10.6146 22.3854 10.875 22.5573 11.1562 22.7656C11.4375 22.974 11.7031 23.2135 11.9531 23.4844C12.2031 23.7552 12.4427 24.0208 12.6719 24.2812C12.901 24.5417 13.0677 24.8021 13.1719 25.0625C13.276 25.3229 13.3438 25.5365 13.375 25.7031C13.375 25.974 13.2917 26.1927 13.125 26.3594C12.9583 26.526 12.75 26.6615 12.5 26.7656C12.6771 27.0781 12.8958 27.3438 13.1562 27.5625C13.4167 27.7812 13.6979 27.9583 14 28.0938C14.3021 28.2292 14.6302 28.3281 14.9844 28.3906C15.3385 28.4531 15.6823 28.4844 16.0156 28.4844ZM22.2812 30.7031C22.5 30.7031 22.7135 30.6719 22.9219 30.6094C23.2448 30.5156 23.5417 30.3802 23.8125 30.2031C24.0833 30.026 24.3333 29.8073 24.5625 29.5469C24.8438 29.224 25.1406 28.9427 25.4531 28.7031C25.7656 28.4635 26.1198 28.2448 26.5156 28.0469C26.6927 27.9635 26.8646 27.8854 27.0312 27.8125C27.1979 27.7396 27.3698 27.651 27.5469 27.5469C27.6615 27.474 27.7708 27.3854 27.875 27.2812C27.9792 27.1771 28.0312 27.0521 28.0312 26.9062C28.0312 26.8229 28.0156 26.7448 27.9844 26.6719C27.9531 26.599 27.9062 26.5208 27.8438 26.4375C27.6875 26.2188 27.5521 26.0156 27.4375 25.8281C27.3229 25.6406 27.224 25.4427 27.1406 25.2344C27.0573 25.026 26.974 24.8177 26.8906 24.6094C26.8073 24.401 26.7344 24.1667 26.6719 23.9062C26.6615 23.8542 26.625 23.7865 26.5625 23.7031C26.3438 23.3906 26.0365 23.2344 25.6406 23.2344C25.4531 23.2344 25.276 23.2812 25.1094 23.375C24.9427 23.4688 24.7656 23.5677 24.5781 23.6719C24.3906 23.776 24.2031 23.875 24.0156 23.9688C23.8281 24.0625 23.6302 24.1094 23.4219 24.1094C23.2135 24.1094 23.0417 24.0573 22.9062 23.9531C22.7708 23.849 22.6562 23.7083 22.5625 23.5312C22.4688 23.3542 22.3906 23.1823 22.3281 23.0156C22.2656 22.849 22.2031 22.6771 22.1406 22.5C22.0573 22.6354 21.9635 22.7604 21.8594 22.875C21.7552 22.9896 21.6719 23.125 21.6094 23.2812C21.474 23.5938 21.3906 23.9427 21.3594 24.3281C21.3073 24.9323 21.2396 25.5208 21.1562 26.0938C21.0729 26.6667 20.9323 27.2396 20.7344 27.8125C20.6823 27.9792 20.6406 28.1615 20.6094 28.3594C20.5781 28.5573 20.5573 28.75 20.5469 28.9375C20.5469 29.4479 20.7031 29.8698 21.0156 30.2031C21.3281 30.5365 21.75 30.7031 22.2812 30.7031Z" fill="white"/>
</svg>
