<svg width="32" height="32" viewBox="0 0 32 32" fill="none" xmlns="http://www.w3.org/2000/svg">
<mask id="mask0_1_28" style="mask-type:luminance" maskUnits="userSpaceOnUse" x="3" y="3" width="26" height="26">
<path d="M3 3H29V29H3V3Z" fill="#d0e0ff"/>
</mask>
<g mask="url(#mask0_1_28)">
<path d="M15.1485 3.00664C15.0922 3.01205 14.9145 3.03047 14.7542 3.04239C11.0622 3.37605 7.60417 5.3683 5.4115 8.43089C4.20066 10.1119 3.41353 12.0604 3.117 14.1108C3.013 14.8258 3 15.036 3 16.0045C3 16.973 3.013 17.1842 3.117 17.8981C3.82333 22.7807 7.29867 26.8822 12.0101 28.4021C12.854 28.6741 13.7434 28.8593 14.7542 28.972C15.1485 29.0153 16.8515 29.0153 17.2458 28.972C18.9911 28.7781 20.4709 28.3458 21.9291 27.6016C22.1533 27.4878 22.1967 27.4564 22.1663 27.4315C21.4531 26.4908 20.7471 25.5447 20.0484 24.5931L17.9695 21.7841L15.3652 17.9285C14.4986 16.6389 13.624 15.3547 12.7413 14.0761C12.7316 14.0729 12.7218 15.7856 12.7164 17.8786C12.7088 21.5403 12.7056 21.6876 12.6601 21.7743C12.6157 21.8754 12.5365 21.9573 12.4369 22.0051C12.3557 22.0462 12.2852 22.0538 11.9007 22.0538H11.4608L11.3438 21.9801C11.2714 21.9344 11.2127 21.8701 11.1738 21.7938L11.1196 21.6801L11.125 16.5841L11.1326 11.4859L11.2117 11.3862C11.2649 11.3239 11.3287 11.2715 11.4002 11.2313C11.5042 11.1804 11.5442 11.1761 11.9852 11.1761C12.503 11.1761 12.5897 11.1956 12.724 11.3429C12.7619 11.3841 14.1724 13.5096 15.8603 16.0684L20.9888 23.8381L23.0471 26.9559L23.1522 26.8876C24.1428 26.2291 25.0409 25.441 25.8226 24.5444C27.4608 22.6695 28.5234 20.3618 28.883 17.8981C28.987 17.1831 29 16.973 29 16.0045C29 15.036 28.987 14.8258 28.883 14.1108C28.1767 9.2293 24.7013 5.12672 19.9899 3.6068C19.1094 3.32684 18.2027 3.137 17.2838 3.04022C17.0389 3.01422 15.3598 2.98605 15.1496 3.00772L15.1485 3.00664ZM20.4709 10.8716C20.5313 10.9021 20.5851 10.9441 20.6292 10.9955C20.6733 11.0468 20.7067 11.1063 20.7277 11.1706C20.7472 11.2356 20.7526 12.6494 20.7472 15.8344L20.7396 20.4039L19.9347 19.1689L19.1265 17.9339V14.6124C19.1265 12.4641 19.1363 11.2573 19.1514 11.1988C19.1695 11.1311 19.201 11.0678 19.2442 11.0127C19.2874 10.9576 19.3414 10.9118 19.4028 10.8781C19.5078 10.824 19.5458 10.8196 19.9444 10.8196C20.3203 10.8196 20.3864 10.8251 20.4709 10.8706V10.8716Z" fill="#d0e0ff"/>
</g>
</svg>
