<svg width="32" height="32" viewBox="0 0 32 32" fill="none" xmlns="http://www.w3.org/2000/svg">
<path d="M16 13.48C17.3733 13.48 18.4933 14.6 18.4933 16C18.4933 17.3333 17.3733 18.4667 16 18.4667C14.6267 18.4667 13.5067 17.3333 13.5067 16C13.5067 14.6 14.6267 13.48 16 13.48ZM9.82667 26.6667C10.6667 27.1733 12.5067 26.4 14.6267 24.4C13.9333 23.6133 13.2533 22.76 12.6133 21.8667C11.5389 21.7638 10.4707 21.6036 9.41334 21.3867C8.73334 24.24 8.98667 26.2 9.82667 26.6667M10.7733 19.0133L10.3867 18.3333C10.24 18.72 10.0933 19.1067 10 19.48C10.36 19.56 10.76 19.6267 11.1733 19.6933L10.7733 19.0133ZM19.4933 18L20.5733 16L19.4933 14C19.0933 13.2933 18.6667 12.6667 18.28 12.04C17.56 12 16.8 12 16 12C15.2 12 14.44 12 13.72 12.04C13.3333 12.6667 12.9067 13.2933 12.5067 14L11.4267 16L12.5067 18C12.9067 18.7067 13.3333 19.3333 13.72 19.96C14.44 20 15.2 20 16 20C16.8 20 17.56 20 18.28 19.96C18.6667 19.3333 19.0933 18.7067 19.4933 18M16 9.04C15.7467 9.33333 15.48 9.64 15.2133 10H16.7867C16.52 9.64 16.2533 9.33333 16 9.04ZM16 22.96C16.2533 22.6667 16.52 22.36 16.7867 22H15.2133C15.48 22.36 15.7467 22.6667 16 22.96ZM22.16 5.33333C21.3333 4.82667 19.4933 5.6 17.3733 7.6C18.0667 8.38667 18.7467 9.24 19.3867 10.1333C20.48 10.24 21.56 10.4 22.5867 10.6133C23.2667 7.76 23.0133 5.8 22.16 5.33333ZM21.2267 12.9867L21.6133 13.6667C21.76 13.28 21.9067 12.8933 22 12.52C21.64 12.44 21.24 12.3733 20.8267 12.3067L21.2267 12.9867M23.16 3.58667C25.12 4.70667 25.3333 7.65333 24.5067 11.0933C27.8933 12.0933 30.3333 13.7467 30.3333 16C30.3333 18.2533 27.8933 19.9067 24.5067 20.9067C25.3333 24.3467 25.12 27.2933 23.16 28.4133C21.2133 29.5333 18.56 28.2533 16 25.8133C13.44 28.2533 10.7867 29.5333 8.82667 28.4133C6.88001 27.2933 6.66667 24.3467 7.49334 20.9067C4.10667 19.9067 1.66667 18.2533 1.66667 16C1.66667 13.7467 4.10667 12.0933 7.49334 11.0933C6.66667 7.65333 6.88001 4.70667 8.82667 3.58667C10.7867 2.46667 13.44 3.74667 16 6.18667C18.56 3.74667 21.2133 2.46667 23.16 3.58667ZM22.7733 16C23.2267 17 23.6267 18 23.96 19.0133C26.76 18.1733 28.3333 16.9733 28.3333 16C28.3333 15.0267 26.76 13.8267 23.96 12.9867C23.6267 14 23.2267 15 22.7733 16ZM9.22667 16C8.77334 15 8.37334 14 8.04001 12.9867C5.24001 13.8267 3.66667 15.0267 3.66667 16C3.66667 16.9733 5.24001 18.1733 8.04001 19.0133C8.37334 18 8.77334 17 9.22667 16ZM21.2267 19.0133L20.8267 19.6933C21.24 19.6267 21.64 19.56 22 19.48C21.9067 19.1067 21.76 18.72 21.6133 18.3333L21.2267 19.0133M17.3733 24.4C19.4933 26.4 21.3333 27.1733 22.16 26.6667C23.0133 26.2 23.2667 24.24 22.5867 21.3867C21.56 21.6 20.48 21.76 19.3867 21.8667C18.7467 22.76 18.0667 23.6133 17.3733 24.4M10.7733 12.9867L11.1733 12.3067C10.76 12.3733 10.36 12.44 10 12.52C10.0933 12.8933 10.24 13.28 10.3867 13.6667L10.7733 12.9867ZM14.6267 7.6C12.5067 5.6 10.6667 4.82667 9.82667 5.33333C8.98667 5.8 8.73334 7.76 9.41334 10.6133C10.4707 10.3964 11.5389 10.2362 12.6133 10.1333C13.2533 9.24 13.9333 8.38667 14.6267 7.6V7.6Z" fill="#cba6f7"/>
</svg>
