<svg width="33" height="32" viewBox="0 0 33 32" fill="none" xmlns="http://www.w3.org/2000/svg">
<path d="M29.0008 16.9837H28.9716L24.2953 12.3075L28.9545 7.52566V5.58285L28.2516 4.87999H19.3688L18.6538 5.53572V6.67004L16.0171 4.02925V4L16 4.01706L15.9829 4V4.02925L14.5862 5.42603L14.0019 4.8418H5.20364L4.51378 5.59504V7.63454L5.17845 8.30327H5.96175V14.0545L3.02925 16.987H3L3.01706 17L3 17.0171H3.02925L5.96175 19.9455V26.9537L6.94331 27.5209H9.45734L11.4717 25.4554L15.9829 29.9707V30L16 29.9829L16.0171 30V29.9707L18.7342 27.2536H19.2591C19.319 27.2535 19.3773 27.2346 19.4258 27.1996C19.4743 27.1646 19.5107 27.1153 19.5297 27.0586L19.6906 26.597C19.7051 26.5531 19.7088 26.5063 19.7014 26.4607C19.6941 26.415 19.6759 26.3718 19.6484 26.3346L21.2312 24.7517L20.5706 26.8766C20.5592 26.9127 20.5551 26.9507 20.5585 26.9884C20.5619 27.0261 20.5727 27.0628 20.5904 27.0963C20.6081 27.1298 20.6323 27.1594 20.6615 27.1835C20.6908 27.2075 20.7245 27.2256 20.7607 27.2365C20.7873 27.2484 20.8162 27.2542 20.8452 27.2536H22.8214C22.8775 27.2518 22.9319 27.2341 22.9784 27.2026C23.0248 27.1711 23.0614 27.1271 23.0838 27.0756L23.2618 26.6482C23.2766 26.6133 23.2839 26.5756 23.2832 26.5377C23.2825 26.4998 23.2738 26.4624 23.2577 26.428C23.2446 26.3925 23.2237 26.3603 23.1966 26.3339C23.1694 26.3075 23.1367 26.2874 23.1009 26.2753C23.0671 26.2617 23.0315 26.2532 22.9952 26.2501H22.9148L23.8249 23.3891H25.1583L24.0581 26.8766C24.0455 26.9199 24.0432 26.9656 24.0512 27.01C24.0593 27.0544 24.0775 27.0963 24.1046 27.1324C24.1316 27.1686 24.1666 27.198 24.2069 27.2183C24.2472 27.2386 24.2916 27.2493 24.3368 27.2495H26.5038C26.5619 27.2492 26.6185 27.2318 26.6667 27.1994C26.7148 27.1671 26.7523 27.1211 26.7744 27.0675L26.9524 26.6019C26.9678 26.5584 26.9727 26.5118 26.9664 26.4661C26.9601 26.4204 26.943 26.3768 26.9164 26.3391C26.8898 26.3013 26.8546 26.2705 26.8136 26.2492C26.7726 26.228 26.7271 26.2168 26.681 26.2168H26.5242L27.747 22.2345C27.7614 22.1912 27.7651 22.1451 27.7577 22.1001C27.7504 22.0551 27.7322 22.0125 27.7048 21.9761L27.2985 21.43V21.426C27.2718 21.3906 27.2373 21.3619 27.1977 21.342C27.1581 21.3222 27.1145 21.3117 27.0702 21.3114H25.5125C25.4745 21.3117 25.4368 21.3197 25.4019 21.335C25.367 21.3502 25.3355 21.3723 25.3094 21.4L24.8739 21.8786H24.2011L24.1548 21.8274L28.9707 17.0114H29L28.9829 16.9984L29.0008 16.9837ZM13.6599 26.9042L15.3695 22.0159H14.8234L15.1493 21.686H16.9434L15.2508 26.6247H15.9277L15.8391 26.9042H13.6599ZM17.6592 18.7567L17.8242 18.9217L17.5325 19.9203L17.2871 20.1657H16.2373L16.0423 19.9707L16.3811 19.0273L16.6899 18.7567H17.6592ZM9.05513 26.5653H7.2017L6.91406 26.4045V7.34771H5.5766L5.4669 7.24208V5.968L5.62373 5.79899H13.6095L13.8419 6.03138V7.23314L13.685 7.41921H12.5166V16.831L22.06 7.41921H19.8003L19.6102 7.21608V5.955L19.741 5.83636H27.8535L27.9973 5.98019V7.1397L17.062 18.3545H16.6094L16.5883 18.3586C16.542 18.3704 16.4987 18.392 16.4615 18.422L16.0894 18.7437L16.0853 18.7478C16.0502 18.781 16.0227 18.8215 16.0049 18.8664L15.6872 19.7675L9.05513 26.5653ZM25.0567 22.2865L25.5686 21.7234H27.0117L27.3505 22.1719L25.9789 26.6198H26.512L26.4234 26.8481H24.4936L25.7124 22.9844H23.5283L22.3598 26.658H22.8214L22.7409 26.8481H21.0013L22.203 23.0056H19.9303L18.7789 26.6239H19.2526L19.1722 26.8481H17.3732L19.0154 22.0151H18.3808L18.4783 21.7234H20.2643L20.8274 22.3035H21.8089L22.342 21.7071H23.4885L24.0215 22.2873L25.0567 22.2865Z" fill="#a6e3a1"/>
</svg>
